# https://github.com/mikedh/trimesh
mtllib material.mtl
usemtl material_0
v -6.00000000 -6.00000000 0.00000000
v -5.00000000 -6.00000000 0.00000000
v -6.00000000 -5.00000000 0.00000000
v -5.00000000 -5.00000000 0.00000000
v -5.20000000 -1.80000000 0.00000000
v -5.20000000 -1.00000000 0.00000000
v -6.00000000 -1.80000000 0.00000000
v -6.00000000 -1.00000000 0.00000000
v 6.00000000 -5.00000000 0.40000000
v 6.00000000 -6.00000000 0.40000000
v 5.00000000 -6.00000000 0.40000000
v 5.00000000 -5.00000000 0.40000000
vn 0.00000000 0.00000000 1.00000000
vn 0.00000000 0.00000000 1.00000000
vn 0.00000000 0.00000000 1.00000000
vn 0.00000000 0.00000000 1.00000000
vn 0.00000000 0.00000000 1.00000000
vn 0.00000000 0.00000000 1.00000000
vn 0.00000000 0.00000000 1.00000000
vn 0.00000000 0.00000000 1.00000000
vn 0.00000000 0.00000000 1.00000000
vn 0.00000000 0.00000000 1.00000000
vn 0.00000000 0.00000000 1.00000000
vn 0.00000000 0.00000000 1.00000000
vt 0.60897300 0.76923100
vt 0.54487100 0.76923100
vt 0.60897300 0.70512800
vt 0.54487100 0.70512800
vt 0.55769100 0.50000000
vt 0.55769100 0.44871800
vt 0.60897300 0.50000000
vt 0.60897300 0.44871800
vt 0.78210100 0.06410300
vt 0.78210100 -0.00000000
vt 0.71799900 -0.00000000
vt 0.71799900 0.06410300
f 3/3/3 2/2/2 4/4/4
f 8/8/8 5/5/5 6/6/6
f 12/12/12 10/10/10 9/9/9
f 3/3/3 1/1/1 2/2/2
f 8/8/8 7/7/7 5/5/5
f 12/12/12 11/11/11 10/10/10

