# https://github.com/mikedh/trimesh
v -2.80345010 -4.22611710 0.00000000
v -2.80345010 -1.82611700 0.00000000
v -1.60344990 -2.42611690 0.00000000
v -1.60344990 -2.42611690 0.00000000
v -2.80345010 -2.42611690 0.00000000
v -2.80345010 -2.42611690 0.00000000
v 1.99655000 -3.62611700 0.00000000
v 1.99655000 -3.62611700 0.00000000
v -1.60344990 -3.62611700 0.00000000
v -1.60344990 -3.62611700 0.00000000
v -1.60344990 -3.62611700 0.00000000
v -1.60344990 -3.62611700 0.00000000
v 1.99655000 -2.42611690 0.00000000
v 1.99655000 -2.42611690 0.00000000
v 0.79655000 -2.42611690 0.00000000
v 0.79655000 -2.42611690 0.00000000
v 0.79655000 -3.62611700 0.00000000
v 0.79655000 -3.62611700 0.00000000
v -0.40345000 -3.62611700 0.00000000
v -0.40345000 -3.62611700 0.00000000
v 1.99655000 -3.02611710 0.00000000
v -2.80345010 -1.22611700 0.00000000
v -2.80345010 -1.22611700 0.00000000
v -2.80345110 -4.82611700 0.00000000
v -2.80345110 -4.82611700 0.00000000
v -1.60344990 -1.22611700 0.00000000
v -0.40345000 -1.22611700 0.00000000
v 0.79655000 -1.22611700 0.00000000
v 0.79655000 -1.22611700 0.00000000
v -1.60344990 -4.82611700 0.00000000
v -1.60344990 -4.82611700 0.00000000
v -0.40345000 -4.82611700 0.00000000
v -0.40345000 -4.82611700 0.00000000
v 0.79655000 -4.82611700 0.00000000
v 0.79655000 -4.82611700 0.00000000
v -2.80345010 -3.62611700 0.00000000
v -2.80345010 -3.62611700 0.00000000
v 0.79655000 -3.62611700 0.40000000
v 0.79655000 -3.62611700 0.40000000
v 0.79655000 -2.42611690 0.40000000
v 0.79655000 -2.42611690 0.40000000
v 1.99655000 -3.62611700 0.40000000
v 1.99655000 -3.62611700 0.40000000
v 1.99655000 -3.62611700 0.40000000
v 1.99655000 -3.02611710 0.40000000
v 1.99655000 -3.02611710 0.40000000
v 1.99655000 -2.42611690 0.40000000
v 1.99655000 -2.42611690 0.40000000
v 1.99655000 -2.42611690 0.40000000
v -0.40345000 -2.42611690 0.40000000
v 0.79655000 -2.42611690 0.40000000
v -0.40345000 -1.22611700 0.40000000
v -0.40345000 -1.22611700 0.40000000
v 0.79655000 -1.22611700 0.40000000
v 0.79655000 -1.22611700 0.40000000
v 0.79655000 -1.22611700 0.40000000
v -0.40345000 -3.62611700 0.40000000
v -0.40345000 -3.62611700 0.40000000
v 0.79655000 -3.62611700 0.40000000
v 0.79655000 -4.82611700 0.40000000
v 0.79655000 -4.82611700 0.40000000
v 0.79655000 -4.82611700 0.40000000
v -0.40345000 -4.82611700 0.40000000
v -0.40345000 -4.82611700 0.40000000
v -0.40345000 -4.82611700 0.40000000
v -1.60344990 -3.62611700 0.40000000
v -1.60344990 -3.62611700 0.40000000
v -1.60344990 -3.62611700 0.40000000
v -1.60344990 -2.42611690 0.40000000
v -1.60344990 -2.42611690 0.40000000
v -0.40345000 -3.62611700 0.40000000
v -2.80345110 -4.82611700 0.40000000
v -2.80345110 -4.82611700 0.40000000
v -2.80345110 -4.82611700 0.40000000
v -2.80345010 -4.22611710 0.40000000
v -2.80345010 -4.22611710 0.40000000
v -1.60344990 -4.82611700 0.40000000
v -1.60344990 -4.82611700 0.40000000
v -1.60344990 -4.82611700 0.40000000
v -1.60344990 -3.62611700 0.40000000
v -1.60344990 -3.62611700 0.40000000
v -2.80345010 -3.62611700 0.40000000
v -2.80345010 -3.62611700 0.40000000
v -2.80345010 -3.62611700 0.40000000
v -2.80345010 -2.42611690 0.40000000
v -2.80345010 -2.42611690 0.40000000
v -2.80345010 -2.42611690 0.40000000
v -2.80345010 -1.82611700 0.40000000
v -2.80345010 -1.82611700 0.40000000
v -1.60344990 -2.42611690 0.40000000
v -2.80345010 -1.22611700 0.40000000
v -2.80345010 -1.22611700 0.40000000
v -2.80345010 -1.22611700 0.40000000
v -1.60344990 -1.22611700 0.40000000
v -1.60344990 -1.22611700 0.40000000
v -2.80345010 -1.32344000 0.40000000
v -2.80345010 -1.32344000 0.40000000
v -2.80345010 -1.25611700 0.00000000
v -2.77344990 -4.82611700 0.00000000
v -2.80000090 4.22499990 0.00000000
v -2.80000000 1.82500000 0.00000000
v -1.60000000 2.42500000 0.00000000
v -1.60000000 2.42500000 0.00000000
v -2.80000000 2.42500000 0.00000000
v -2.80000000 2.42500000 0.00000000
v 2.00000000 3.62500000 0.00000000
v 2.00000000 3.62500000 0.00000000
v -1.60000000 3.62500000 0.00000000
v -1.60000000 3.62500000 0.00000000
v -1.60000000 3.62500000 0.00000000
v -1.60000000 3.62500000 0.00000000
v 2.00000000 2.42500000 0.00000000
v 2.00000000 2.42500000 0.00000000
v 0.80000000 2.42500000 0.00000000
v 0.80000000 2.42500000 0.00000000
v 0.80000000 3.62500000 0.00000000
v 0.80000000 3.62500000 0.00000000
v -0.40000000 3.62500000 0.00000000
v -0.40000000 3.62500000 0.00000000
v 2.00000000 3.02500010 0.00000000
v -2.80000000 1.22500000 0.00000000
v -2.80000000 1.22500000 0.00000000
v -2.80000000 4.82499980 0.00000000
v -2.80000000 4.82499980 0.00000000
v -1.60000000 1.22500000 0.00000000
v -0.40000000 1.22500000 0.00000000
v 0.80000000 1.22500000 0.00000000
v 0.80000000 1.22500000 0.00000000
v -1.60000000 4.82499980 0.00000000
v -1.60000000 4.82499980 0.00000000
v -0.40000000 4.82499980 0.00000000
v -0.40000000 4.82499980 0.00000000
v 0.79999900 4.82499980 0.00000000
v 0.79999900 4.82499980 0.00000000
v -2.80000000 3.62500000 0.00000000
v -2.80000000 3.62500000 0.00000000
v 0.80000000 3.62500000 0.40000000
v 0.80000000 3.62500000 0.40000000
v 0.80000000 2.42500000 0.40000000
v 0.80000000 2.42500000 0.40000000
v 2.00000000 3.62500000 0.40000000
v 2.00000000 3.62500000 0.40000000
v 2.00000000 3.62500000 0.40000000
v 2.00000000 3.02500010 0.40000000
v 2.00000000 3.02500010 0.40000000
v 2.00000000 2.42500000 0.40000000
v 2.00000000 2.42500000 0.40000000
v 2.00000000 2.42500000 0.40000000
v -0.40000000 2.42500000 0.40000000
v 0.80000000 2.42500000 0.40000000
v -0.40000000 1.22500000 0.40000000
v -0.40000000 1.22500000 0.40000000
v 0.80000000 1.22500000 0.40000000
v 0.80000000 1.22500000 0.40000000
v 0.80000000 1.22500000 0.40000000
v -0.40000000 3.62500000 0.40000000
v -0.40000000 3.62500000 0.40000000
v 0.80000000 3.62500000 0.40000000
v 0.79999900 4.82499980 0.40000000
v 0.79999900 4.82499980 0.40000000
v 0.79999900 4.82499980 0.40000000
v -0.40000000 4.82499980 0.40000000
v -0.40000000 4.82499980 0.40000000
v -0.40000000 4.82499980 0.40000000
v -1.60000000 3.62500000 0.40000000
v -1.60000000 3.62500000 0.40000000
v -1.60000000 3.62500000 0.40000000
v -1.60000000 2.42500000 0.40000000
v -1.60000000 2.42500000 0.40000000
v -0.40000000 3.62500000 0.40000000
v -2.80000000 4.82499980 0.40000000
v -2.80000000 4.82499980 0.40000000
v -2.80000000 4.82499980 0.40000000
v -2.80000090 4.22499990 0.40000000
v -2.80000090 4.22499990 0.40000000
v -1.60000000 4.82499980 0.40000000
v -1.60000000 4.82499980 0.40000000
v -1.60000000 4.82499980 0.40000000
v -1.60000000 3.62500000 0.40000000
v -1.60000000 3.62500000 0.40000000
v -2.80000000 3.62500000 0.40000000
v -2.80000000 3.62500000 0.40000000
v -2.80000000 3.62500000 0.40000000
v -2.80000000 2.42500000 0.40000000
v -2.80000000 2.42500000 0.40000000
v -2.80000000 2.42500000 0.40000000
v -2.80000000 1.82500000 0.40000000
v -2.80000000 1.82500000 0.40000000
v -1.60000000 2.42500000 0.40000000
v -2.80000000 1.22500000 0.40000000
v -2.80000000 1.22500000 0.40000000
v -2.80000000 1.22500000 0.40000000
v -1.60000000 1.22500000 0.40000000
v -1.60000000 1.22500000 0.40000000
v -2.80000000 1.32232300 0.40000000
v -2.80000000 1.32232300 0.40000000
v -2.80000000 1.25500000 0.00000000
v -2.77000000 4.82499980 0.00000000
vn -1.00000000 0.00000080 0.00000000
vn -1.00000000 0.00000000 0.00000000
vn 0.00000000 -1.00000000 0.00000000
vn -1.00000000 0.00000000 0.00000000
vn -1.00000000 0.00000000 0.00000000
vn 0.00000000 -1.00000000 0.00000000
vn 0.00000000 -1.00000000 0.00000000
vn 1.00000000 0.00000000 0.00000000
vn 0.00000000 -1.00000000 0.00000000
vn -1.00000000 0.00000000 0.00000000
vn 1.00000000 0.00000000 0.00000000
vn 0.00000000 1.00000000 0.00000000
vn 0.00000000 1.00000000 0.00000000
vn 1.00000000 0.00000000 0.00000000
vn 1.00000000 0.00000000 0.00000000
vn 0.00000000 1.00000000 0.00000000
vn 0.00000000 -1.00000000 0.00000000
vn 1.00000000 0.00000000 0.00000000
vn -1.00000000 0.00000000 0.00000000
vn 0.00000000 -1.00000000 0.00000000
vn 1.00000000 0.00000000 0.00000000
vn 0.00000000 1.00000000 0.00000000
vn -1.00000000 0.00000000 0.00000000
vn 0.00000000 -1.00000000 0.00000000
vn -1.00000000 0.00000159 0.00000000
vn 0.00000000 1.00000000 0.00000000
vn 0.00000000 1.00000000 0.00000000
vn 1.00000000 0.00000000 0.00000000
vn 0.00000000 1.00000000 0.00000000
vn 1.00000000 0.00000000 0.00000000
vn 0.00000000 -1.00000000 0.00000000
vn -1.00000000 0.00000000 0.00000000
vn 0.00000000 -1.00000000 0.00000000
vn 0.00000000 -1.00000000 0.00000000
vn 1.00000000 0.00000000 0.00000000
vn 0.00000000 1.00000000 0.00000000
vn -1.00000000 0.00000000 0.00000000
vn 0.00000000 0.00000000 1.00000000
vn 0.00000000 -1.00000000 0.00000000
vn 0.00000000 1.00000000 0.00000000
vn 0.00000000 0.00000000 1.00000000
vn 0.00000000 -1.00000000 0.00000000
vn 0.00000000 0.00000000 1.00000000
vn 1.00000000 0.00000000 0.00000000
vn 1.00000000 0.00000000 0.00000000
vn 0.00000000 0.00000000 1.00000000
vn 0.00000000 1.00000000 0.00000000
vn 1.00000000 0.00000000 0.00000000
vn 0.00000000 0.00000000 1.00000000
vn 0.00000000 0.00000000 1.00000000
vn 1.00000000 0.00000000 0.00000000
vn 0.00000000 0.00000000 1.00000000
vn 0.00000000 1.00000000 0.00000000
vn 0.00000000 1.00000000 0.00000000
vn 0.00000000 0.00000000 1.00000000
vn 1.00000000 0.00000000 0.00000000
vn 0.00000000 0.00000000 1.00000000
vn -1.00000000 0.00000000 0.00000000
vn 1.00000000 0.00000000 0.00000000
vn 0.00000000 -1.00000000 0.00000000
vn 1.00000000 0.00000000 0.00000000
vn 0.00000000 0.00000000 1.00000000
vn 0.00000000 -1.00000000 0.00000000
vn -1.00000000 0.00000000 0.00000000
vn 0.00000000 0.00000000 1.00000000
vn 0.00000000 0.00000000 1.00000000
vn -1.00000000 0.00000000 0.00000000
vn 0.00000000 -1.00000000 0.00000000
vn -1.00000000 0.00000000 0.00000000
vn 0.00000000 0.00000000 1.00000000
vn 0.00000000 -1.00000000 0.00000000
vn 0.00000000 -1.00000000 0.00000000
vn 0.00000000 0.00000000 1.00000000
vn -1.00000000 0.00000159 0.00000000
vn -1.00000000 0.00000080 0.00000000
vn 0.00000000 0.00000000 1.00000000
vn 1.00000000 0.00000000 0.00000000
vn 0.00000000 -1.00000000 0.00000000
vn 0.00000000 0.00000000 1.00000000
vn 1.00000000 0.00000000 0.00000000
vn 0.00000000 1.00000000 0.00000000
vn 0.00000000 0.00000000 1.00000000
vn 0.00000000 1.00000000 0.00000000
vn -1.00000000 0.00000000 0.00000000
vn -1.00000000 0.00000000 0.00000000
vn 0.00000000 -1.00000000 0.00000000
vn 0.00000000 0.00000000 1.00000000
vn 0.00000000 0.00000000 1.00000000
vn -1.00000000 0.00000000 0.00000000
vn 0.00000000 -1.00000000 0.00000000
vn -1.00000000 0.00000000 0.00000000
vn 0.00000000 1.00000000 0.00000000
vn 0.00000000 0.00000000 1.00000000
vn 0.00000000 1.00000000 0.00000000
vn 0.00000000 0.00000000 1.00000000
vn 0.00000000 0.00000000 1.00000000
vn -1.00000000 0.00000000 0.00000000
vn -1.00000000 0.00000000 0.00000000
vn 0.00000000 -1.00000000 0.00000000
vn -1.00000000 0.00000000 0.00000000
vn -1.00000000 0.00000000 0.00000000
vn 0.00000000 1.00000000 0.00000000
vn -1.00000000 0.00000000 0.00000000
vn -1.00000000 0.00000000 0.00000000
vn 0.00000000 1.00000000 0.00000000
vn 0.00000000 1.00000000 0.00000000
vn 1.00000000 0.00000000 0.00000000
vn 0.00000000 1.00000000 0.00000000
vn -1.00000000 0.00000000 0.00000000
vn 1.00000000 0.00000000 0.00000000
vn 0.00000000 -1.00000000 0.00000000
vn 0.00000000 -1.00000000 0.00000000
vn 1.00000000 0.00000000 0.00000000
vn 1.00000000 0.00000000 0.00000000
vn 0.00000000 -1.00000000 0.00000000
vn 0.00000000 1.00000000 0.00000000
vn 1.00000000 0.00000083 0.00000000
vn -1.00000000 0.00000000 0.00000000
vn 0.00000000 1.00000000 0.00000000
vn 1.00000000 0.00000000 0.00000000
vn 0.00000000 -1.00000000 0.00000000
vn -1.00000000 0.00000000 0.00000000
vn 0.00000000 1.00000000 0.00000000
vn -1.00000000 0.00000159 0.00000000
vn 0.00000000 -1.00000000 0.00000000
vn 0.00000000 -1.00000000 0.00000000
vn 1.00000000 0.00000000 0.00000000
vn 0.00000000 -1.00000000 0.00000000
vn 1.00000000 0.00000000 0.00000000
vn 0.00000000 1.00000000 0.00000000
vn -1.00000000 0.00000000 0.00000000
vn 0.00000000 1.00000000 0.00000000
vn 0.00000000 1.00000000 0.00000000
vn 1.00000000 0.00000083 0.00000000
vn 0.00000000 -1.00000000 0.00000000
vn -1.00000000 -0.00000159 0.00000000
vn 0.00000000 0.00000000 1.00000000
vn 0.00000000 1.00000000 0.00000000
vn 0.00000000 -1.00000000 0.00000000
vn 0.00000000 0.00000000 1.00000000
vn 0.00000000 1.00000000 0.00000000
vn 0.00000000 0.00000000 1.00000000
vn 1.00000000 0.00000000 0.00000000
vn 1.00000000 0.00000000 0.00000000
vn 0.00000000 0.00000000 1.00000000
vn 0.00000000 -1.00000000 0.00000000
vn 1.00000000 0.00000000 0.00000000
vn 0.00000000 0.00000000 1.00000000
vn 0.00000000 0.00000000 1.00000000
vn 1.00000000 0.00000000 0.00000000
vn 0.00000000 0.00000000 1.00000000
vn 0.00000000 -1.00000000 0.00000000
vn 0.00000000 -1.00000000 0.00000000
vn 0.00000000 0.00000000 1.00000000
vn 1.00000000 0.00000000 0.00000000
vn 0.00000000 0.00000000 1.00000000
vn -1.00000000 0.00000000 0.00000000
vn 1.00000000 0.00000083 0.00000000
vn 0.00000000 1.00000000 0.00000000
vn 1.00000000 0.00000083 0.00000000
vn 0.00000000 0.00000000 1.00000000
vn 0.00000000 1.00000000 0.00000000
vn -1.00000000 0.00000000 0.00000000
vn 0.00000000 0.00000000 1.00000000
vn 0.00000000 0.00000000 1.00000000
vn -1.00000000 0.00000000 0.00000000
vn 0.00000000 1.00000000 0.00000000
vn -1.00000000 0.00000000 0.00000000
vn 0.00000000 0.00000000 1.00000000
vn 0.00000000 1.00000000 0.00000000
vn 0.00000000 1.00000000 0.00000000
vn 0.00000000 0.00000000 1.00000000
vn -1.00000000 0.00000159 0.00000000
vn -1.00000000 0.00000000 0.00000000
vn 0.00000000 0.00000000 1.00000000
vn 1.00000000 0.00000000 0.00000000
vn 0.00000000 1.00000000 0.00000000
vn 0.00000000 0.00000000 1.00000000
vn 1.00000000 0.00000000 0.00000000
vn 0.00000000 -1.00000000 0.00000000
vn 0.00000000 0.00000000 1.00000000
vn 0.00000000 -1.00000000 0.00000000
vn -1.00000000 -0.00000159 0.00000000
vn -1.00000000 0.00000000 0.00000000
vn 0.00000000 1.00000000 0.00000000
vn 0.00000000 0.00000000 1.00000000
vn 0.00000000 0.00000000 1.00000000
vn -1.00000000 0.00000000 0.00000000
vn 0.00000000 1.00000000 0.00000000
vn -1.00000000 0.00000000 0.00000000
vn 0.00000000 -1.00000000 0.00000000
vn 0.00000000 0.00000000 1.00000000
vn 0.00000000 -1.00000000 0.00000000
vn 0.00000000 0.00000000 1.00000000
vn 0.00000000 0.00000000 1.00000000
vn -1.00000000 0.00000000 0.00000000
vn -1.00000000 0.00000000 0.00000000
vn 0.00000000 1.00000000 0.00000000
f 81//81 12//12 36//36
f 63//63 33//33 34//34
f 47//47 13//13 16//16
f 69//69 4//4 10//10
f 94//94 26//26 22//22
f 46//46 41//41 38//38
f 45//45 21//21 14//14
f 44//44 8//8 21//21
f 39//39 17//17 7//7
f 41//41 55//55 52//52
f 54//54 29//29 27//27
f 51//51 15//15 28//28
f 62//62 38//38 57//57
f 61//61 35//35 18//18
f 58//58 19//19 32//32
f 57//57 50//50 70//70
f 68//68 9//9 20//20
f 79//79 82//82 76//76
f 72//72 99//99 31//31
f 77//77 30//30 11//11
f 84//84 37//37 1//1
f 75//75 1//1 25//25
f 70//70 96//96 88//88
f 23//23 97//97 91//91
f 89//89 2//2 5//5
f 86//86 6//6 3//3
f 89//89 23//23 98//98
f 81//81 36//36 83//83
f 63//63 34//34 60//60
f 47//47 16//16 40//40
f 69//69 10//10 67//67
f 94//94 22//22 92//92
f 41//41 46//46 49//49
f 46//46 38//38 43//43
f 45//45 14//14 48//48
f 44//44 21//21 45//45
f 39//39 7//7 42//42
f 41//41 52//52 50//50
f 54//54 27//27 53//53
f 51//51 28//28 56//56
f 62//62 57//57 65//65
f 61//61 18//18 59//59
f 58//58 32//32 64//64
f 57//57 70//70 66//66
f 68//68 20//20 71//71
f 82//82 79//79 66//66
f 79//79 76//76 73//73
f 99//99 72//72 24//24
f 72//72 31//31 78//78
f 77//77 11//11 80//80
f 84//84 1//1 75//75
f 75//75 25//25 74//74
f 93//93 70//70 95//95
f 70//70 88//88 87//87
f 96//96 70//70 93//93
f 89//89 5//5 85//85
f 86//86 3//3 90//90
f 23//23 89//89 97//97
f 89//89 98//98 2//2
f 180//180 135//135 111//111
f 162//162 133//133 132//132
f 146//146 115//115 112//112
f 168//168 109//109 103//103
f 193//193 121//121 125//125
f 145//145 137//137 140//140
f 144//144 113//113 120//120
f 143//143 120//120 107//107
f 138//138 106//106 116//116
f 140//140 151//151 154//154
f 153//153 126//126 128//128
f 150//150 127//127 114//114
f 161//161 156//156 137//137
f 160//160 117//117 134//134
f 157//157 131//131 118//118
f 156//156 169//169 149//149
f 167//167 119//119 108//108
f 178//178 175//175 181//181
f 171//171 130//130 198//198
f 176//176 110//110 129//129
f 183//183 100//100 136//136
f 174//174 124//124 100//100
f 169//169 187//187 195//195
f 122//122 190//190 196//196
f 188//188 104//104 101//101
f 185//185 102//102 105//105
f 188//188 197//197 122//122
f 180//180 182//182 135//135
f 162//162 159//159 133//133
f 146//146 139//139 115//115
f 168//168 166//166 109//109
f 193//193 191//191 121//121
f 140//140 148//148 145//145
f 145//145 142//142 137//137
f 144//144 147//147 113//113
f 143//143 144//144 120//120
f 138//138 141//141 106//106
f 140//140 149//149 151//151
f 153//153 152//152 126//126
f 150//150 155//155 127//127
f 161//161 164//164 156//156
f 160//160 158//158 117//117
f 157//157 163//163 131//131
f 156//156 165//165 169//169
f 167//167 170//170 119//119
f 181//181 165//165 178//178
f 178//178 172//172 175//175
f 198//198 123//123 171//171
f 171//171 177//177 130//130
f 176//176 179//179 110//110
f 183//183 174//174 100//100
f 174//174 173//173 124//124
f 192//192 194//194 169//169
f 169//169 186//186 187//187
f 195//195 192//192 169//169
f 188//188 184//184 104//104
f 185//185 189//189 102//102
f 122//122 196//196 188//188
f 188//188 101//101 197//197

