# https://github.com/mikedh/trimesh
mtllib material.mtl
usemtl material_0
v 3.50000000 1.10000000 0.40000000
v 3.50000000 2.10000000 0.40000000
v 3.50000000 1.00000000 0.40000000
v 3.80000000 1.00000000 0.40000000
v 3.50000000 2.50000000 0.40000000
v 3.80000000 2.50000000 0.40000000
v 3.79999900 2.10000000 0.40000000
v 3.79999900 1.10000000 0.40000000
v 3.50000000 -1.10000000 0.40000000
v 3.50000000 -2.10000000 0.40000000
v 3.50000000 -1.00000000 0.40000000
v 3.80000000 -1.00000000 0.40000000
v 3.50000000 -2.50000000 0.40000000
v 3.80000000 -2.50000000 0.40000000
v 3.79999900 -2.10000000 0.40000000
v 3.79999900 -1.10000000 0.40000000
v 3.50000000 -1.37153100 0.40000000
vn 0.00000000 0.00000000 1.00000000
vn 0.00000000 0.00000000 1.00000000
vn 0.00000000 0.00000000 1.00000000
vn 0.00000000 0.00000000 1.00000000
vn 0.00000000 0.00000000 1.00000000
vn 0.00000000 0.00000000 1.00000000
vn 0.00000000 0.00000000 1.00000000
vn 0.00000000 0.00000000 1.00000000
vn 0.00000000 0.00000000 1.00000000
vn 0.00000000 0.00000000 1.00000000
vn 0.00000000 0.00000000 1.00000000
vn 0.00000000 0.00000000 1.00000000
vn 0.00000000 0.00000000 1.00000000
vn 0.00000000 0.00000000 1.00000000
vn 0.00000000 0.00000000 1.00000000
vn 0.00000000 0.00000000 1.00000000
vn 0.00000000 0.00000000 1.00000000
vt 0.62184500 0.45512800
vt 0.62184500 0.51923100
vt 0.62184500 0.44871800
vt 0.64107600 0.44871800
vt 0.62184500 0.54487200
vt 0.64107600 0.54487200
vt 0.64107600 0.51923100
vt 0.64107600 0.45512800
vt 0.62184500 0.31410300
vt 0.62184500 0.25000000
vt 0.62184500 0.32051300
vt 0.64107600 0.32051300
vt 0.62184500 0.22435900
vt 0.64107600 0.22435900
vt 0.64107600 0.25000000
vt 0.64107600 0.31410300
vt 0.62184500 0.29669700
f 3/3/3 8/8/8 1/1/1
f 7/7/7 5/5/5 2/2/2
f 7/7/7 1/1/1 8/8/8
f 11/11/11 16/16/16 12/12/12
f 15/15/15 13/13/13 14/14/14
f 9/9/9 17/17/17 15/15/15
f 3/3/3 4/4/4 8/8/8
f 7/7/7 6/6/6 5/5/5
f 7/7/7 2/2/2 1/1/1
f 11/11/11 9/9/9 16/16/16
f 15/15/15 10/10/10 13/13/13
f 15/15/15 16/16/16 9/9/9
f 17/17/17 10/10/10 15/15/15

