# https://github.com/mikedh/trimesh
mtllib material.mtl
usemtl material_0
v -6.00000000 0.00000000 0.00000000
v 1.97000000 6.00000000 0.00000000
v 2.94000000 0.00000000 0.00000000
v 1.94000000 0.00000000 0.00000000
v 0.94000000 0.00000000 0.00000000
v -0.06000000 0.00000000 0.00000000
v -1.06000000 0.00000000 0.00000000
v -2.06000000 0.00000000 0.00000000
v -3.06000000 0.00000000 0.00000000
v -5.00000000 0.00000000 0.00000000
v 1.97000000 5.00000000 0.00000000
v -4.02500000 6.00000000 0.00000000
v -3.99500000 6.00000000 0.00000000
v -3.99500000 0.00000000 0.00000000
v -4.02500000 0.00000000 0.00000000
v -4.02500000 5.00000000 0.00000000
v -3.99500000 5.00000000 0.00000000
v -4.02500000 4.00000000 0.00000000
v -3.99500000 4.00000000 0.00000000
v -4.02500000 3.00000000 0.00000000
v -3.99500000 3.00000000 0.00000000
v -4.02500000 2.00000000 0.00000000
v -3.99500000 2.00000000 0.00000000
v -3.99500000 1.00000000 0.00000000
v -4.02500000 1.00000000 0.00000000
v -2.80000000 1.20000000 0.00000000
v -2.80000000 4.80000000 0.00000000
v 2.00000000 1.20000000 0.00000000
v 2.00000000 4.80000000 0.00000000
v 3.50000000 0.00000000 0.00000000
v -6.00000000 0.02500000 0.00000000
v 2.94000000 0.02500000 0.00000000
v 1.94000000 0.02500000 0.00000000
v 0.94000000 0.02500000 0.00000000
v -0.06000000 0.02500000 0.00000000
v -1.06000000 0.02500000 0.00000000
v -2.06000000 0.02500000 0.00000000
v -3.06000000 0.02500000 0.00000000
v -5.00000000 0.02500000 0.00000000
v -4.02500000 0.02500000 0.00000000
v -3.99500000 0.02500000 0.00000000
v 3.50000000 0.02500000 0.00000000
v 1.97000000 -6.00000000 0.00000000
v 1.97000000 -5.00000000 0.00000000
v -4.02500000 -6.00000000 0.00000000
v -3.99500000 -6.00000000 0.00000000
v -4.02500000 -5.00000000 0.00000000
v -3.99500000 -5.00000000 0.00000000
v -4.02500000 -4.00000000 0.00000000
v -3.99500000 -4.00000000 0.00000000
v -4.02500000 -3.00000000 0.00000000
v -3.99500000 -3.00000000 0.00000000
v -4.02500000 -2.00000000 0.00000000
v -3.99500000 -2.00000000 0.00000000
v -3.99500000 -1.00000000 0.00000000
v -4.02500000 -1.00000000 0.00000000
v -2.80000000 -1.20000000 0.00000000
v -2.80000000 -4.80000000 0.00000000
v 2.00000000 -1.20000000 0.00000000
v 2.00000000 -4.80000000 0.00000000
v -6.00000000 -0.02500000 0.00000000
v 2.94000000 -0.02500000 0.00000000
v 1.94000000 -0.02500000 0.00000000
v 0.94000000 -0.02500000 0.00000000
v -0.06000000 -0.02500000 0.00000000
v -1.06000000 -0.02500000 0.00000000
v -2.06000000 -0.02500000 0.00000000
v -3.06000000 -0.02500000 0.00000000
v -5.00000000 -0.02500000 0.00000000
v -4.02500000 -0.02500000 0.00000000
v -3.99500000 -0.02500000 0.00000000
v 3.50000000 -0.02500000 0.00000000
v -4.02500000 4.80000000 0.00000000
v -3.06000000 4.80000000 0.00000000
v -3.99500000 4.80000000 0.00000000
v -3.99500000 4.77000000 0.00000000
v -2.80000000 4.77000000 0.00000000
v -3.06000000 4.77000000 0.00000000
v 2.00000000 6.00000000 0.00000000
v 2.00000000 5.00000000 0.00000000
v 1.97000000 4.80000000 0.00000000
v 2.94000000 1.20000000 0.00000000
v 3.50000000 1.20000000 0.00000000
v 2.94000000 1.23000000 0.00000000
v 2.00000000 1.23000200 0.00000000
v 3.50000000 1.23000000 0.00000000
v -3.06000000 1.20000000 0.00000000
v -3.99500000 1.20000000 0.00000000
v -3.99500000 1.23000000 0.00000000
v -2.80000000 1.23000000 0.00000000
v -3.06000000 1.23000000 0.00000000
v -3.99500000 -1.20000000 0.00000000
v -3.06000000 -1.20000000 0.00000000
v -4.02500000 -1.20000000 0.00000000
v -3.99500000 -1.23000000 0.00000000
v -2.80000000 -1.23000000 0.00000000
v -3.06000000 -1.23000000 0.00000000
v -4.02500000 -4.80000000 0.00000000
v -3.99500000 -4.80000000 0.00000000
v -3.06000000 -4.80000000 0.00000000
v -3.99500000 -4.77000000 0.00000000
v -2.80000000 -4.77000000 0.00000000
v -3.06000000 -4.77000000 0.00000000
v 3.50000000 -1.20000000 0.00000000
v 2.94000000 -1.20000000 0.00000000
v 3.50000000 -1.23000000 0.00000000
v 2.94000000 -1.23000000 0.00000000
v 2.00000000 -1.23000000 0.00000000
v 2.00000000 -6.00000000 0.00000000
v 1.97000000 -4.80000000 0.00000000
vn 0.00000000 0.00000000 1.00000000
vn 0.00000000 0.00000000 1.00000000
vn 0.00000000 0.00000000 1.00000000
vn 0.00000000 0.00000000 1.00000000
vn 0.00000000 0.00000000 1.00000000
vn 0.00000000 0.00000000 1.00000000
vn 0.00000000 0.00000000 1.00000000
vn 0.00000000 0.00000000 1.00000000
vn 0.00000000 0.00000000 1.00000000
vn 0.00000000 0.00000000 1.00000000
vn 0.00000000 0.00000000 1.00000000
vn 0.00000000 0.00000000 1.00000000
vn 0.00000000 0.00000000 1.00000000
vn 0.00000000 0.00000000 1.00000000
vn 0.00000000 0.00000000 1.00000000
vn 0.00000000 0.00000000 1.00000000
vn 0.00000000 0.00000000 1.00000000
vn 0.00000000 0.00000000 1.00000000
vn 0.00000000 0.00000000 1.00000000
vn 0.00000000 0.00000000 1.00000000
vn 0.00000000 0.00000000 1.00000000
vn 0.00000000 0.00000000 1.00000000
vn 0.00000000 0.00000000 1.00000000
vn 0.00000000 0.00000000 1.00000000
vn 0.00000000 0.00000000 1.00000000
vn 0.00000000 0.00000000 1.00000000
vn 0.00000000 0.00000000 1.00000000
vn 0.00000000 0.00000000 1.00000000
vn 0.00000000 0.00000000 1.00000000
vn 0.00000000 0.00000000 1.00000000
vn 0.00000000 0.00000000 1.00000000
vn 0.00000000 0.00000000 1.00000000
vn 0.00000000 0.00000000 1.00000000
vn 0.00000000 0.00000000 1.00000000
vn 0.00000000 0.00000000 1.00000000
vn 0.00000000 0.00000000 1.00000000
vn 0.00000000 0.00000000 1.00000000
vn 0.00000000 0.00000000 1.00000000
vn 0.00000000 0.00000000 1.00000000
vn 0.00000000 0.00000000 1.00000000
vn 0.00000000 0.00000000 1.00000000
vn 0.00000000 0.00000000 1.00000000
vn 0.00000000 0.00000000 1.00000000
vn 0.00000000 0.00000000 1.00000000
vn 0.00000000 0.00000000 1.00000000
vn 0.00000000 0.00000000 1.00000000
vn 0.00000000 0.00000000 1.00000000
vn 0.00000000 0.00000000 1.00000000
vn 0.00000000 0.00000000 1.00000000
vn 0.00000000 0.00000000 1.00000000
vn 0.00000000 0.00000000 1.00000000
vn 0.00000000 0.00000000 1.00000000
vn 0.00000000 0.00000000 1.00000000
vn 0.00000000 0.00000000 1.00000000
vn 0.00000000 0.00000000 1.00000000
vn 0.00000000 0.00000000 1.00000000
vn 0.00000000 0.00000000 1.00000000
vn 0.00000000 0.00000000 1.00000000
vn 0.00000000 0.00000000 1.00000000
vn 0.00000000 0.00000000 1.00000000
vn 0.00000000 0.00000000 1.00000000
vn 0.00000000 0.00000000 1.00000000
vn 0.00000000 0.00000000 1.00000000
vn 0.00000000 0.00000000 1.00000000
vn 0.00000000 0.00000000 1.00000000
vn 0.00000000 0.00000000 1.00000000
vn 0.00000000 0.00000000 1.00000000
vn 0.00000000 0.00000000 1.00000000
vn 0.00000000 0.00000000 1.00000000
vn 0.00000000 0.00000000 1.00000000
vn 0.00000000 0.00000000 1.00000000
vn 0.00000000 0.00000000 1.00000000
vn 0.00000000 0.00000000 1.00000000
vn 0.00000000 0.00000000 1.00000000
vn 0.00000000 0.00000000 1.00000000
vn 0.00000000 0.00000000 1.00000000
vn 0.00000000 0.00000000 1.00000000
vn 0.00000000 0.00000000 1.00000000
vn 0.00000000 0.00000000 1.00000000
vn 0.00000000 0.00000000 1.00000000
vn 0.00000000 0.00000000 1.00000000
vn 0.00000000 0.00000000 1.00000000
vn 0.00000000 0.00000000 1.00000000
vn 0.00000000 0.00000000 1.00000000
vn 0.00000000 0.00000000 1.00000000
vn 0.00000000 0.00000000 1.00000000
vn 0.00000000 0.00000000 1.00000000
vn 0.00000000 0.00000000 1.00000000
vn 0.00000000 0.00000000 1.00000000
vn 0.00000000 0.00000000 1.00000000
vn 0.00000000 0.00000000 1.00000000
vn 0.00000000 0.00000000 1.00000000
vn 0.00000000 0.00000000 1.00000000
vn 0.00000000 0.00000000 1.00000000
vn 0.00000000 0.00000000 1.00000000
vn 0.00000000 0.00000000 1.00000000
vn 0.00000000 0.00000000 1.00000000
vn 0.00000000 0.00000000 1.00000000
vn 0.00000000 0.00000000 1.00000000
vn 0.00000000 0.00000000 1.00000000
vn 0.00000000 0.00000000 1.00000000
vn 0.00000000 0.00000000 1.00000000
vn 0.00000000 0.00000000 1.00000000
vn 0.00000000 0.00000000 1.00000000
vn 0.00000000 0.00000000 1.00000000
vn 0.00000000 0.00000000 1.00000000
vn 0.00000000 0.00000000 1.00000000
vn 0.00000000 0.00000000 1.00000000
vn 0.00000000 0.00000000 1.00000000
vn 0.00000000 0.00000000 1.00000000
vt 0.60897300 0.38461500
vt 0.09807700 0.00000000
vt 0.03589700 0.38461500
vt 0.10000000 0.38461500
vt 0.16410200 0.38461500
vt 0.22820500 0.38461500
vt 0.29230700 0.38461500
vt 0.35640900 0.38461500
vt 0.42051200 0.38461500
vt 0.54487100 0.38461500
vt 0.09807700 0.06410300
vt 0.48237100 0.00000000
vt 0.48044800 0.00000000
vt 0.48044800 0.38461500
vt 0.48237100 0.38461500
vt 0.48237100 0.06410300
vt 0.48044800 0.06410300
vt 0.48237100 0.12820500
vt 0.48044800 0.12820500
vt 0.48237100 0.19230800
vt 0.48044800 0.19230800
vt 0.48237100 0.25641000
vt 0.48044800 0.25641000
vt 0.48044800 0.32051300
vt 0.48237100 0.32051300
vt 0.40384500 0.30769200
vt 0.40384500 0.07692300
vt 0.09615400 0.30769200
vt 0.09615400 0.07692300
vt 0.00000000 0.38461500
vt 0.60897300 0.38301300
vt 0.03589700 0.38301300
vt 0.10000000 0.38301300
vt 0.16410200 0.38301300
vt 0.22820500 0.38301300
vt 0.29230700 0.38301300
vt 0.35640900 0.38301300
vt 0.42051200 0.38301300
vt 0.54487100 0.38301300
vt 0.48237100 0.38301300
vt 0.48044800 0.38301300
vt 0.00000000 0.38301300
vt 0.09807700 0.76923100
vt 0.09807700 0.70512800
vt 0.48237100 0.76923100
vt 0.48044800 0.76923100
vt 0.48237100 0.70512800
vt 0.48044800 0.70512800
vt 0.48237100 0.64102600
vt 0.48044800 0.64102600
vt 0.48237100 0.57692300
vt 0.48044800 0.57692300
vt 0.48237100 0.51282000
vt 0.48044800 0.51282000
vt 0.48044800 0.44871800
vt 0.48237100 0.44871800
vt 0.40384500 0.46153800
vt 0.40384500 0.69230800
vt 0.09615400 0.46153800
vt 0.09615400 0.69230800
vt 0.60897300 0.38621800
vt 0.03589700 0.38621800
vt 0.10000000 0.38621800
vt 0.16410200 0.38621800
vt 0.22820500 0.38621800
vt 0.29230700 0.38621800
vt 0.35640900 0.38621800
vt 0.42051200 0.38621800
vt 0.54487100 0.38621800
vt 0.48237100 0.38621800
vt 0.48044800 0.38621800
vt 0.00000000 0.38621800
vt 0.48237100 0.07692300
vt 0.42051200 0.07692300
vt 0.48044800 0.07692300
vt 0.48044800 0.07884600
vt 0.40384500 0.07884600
vt 0.42051200 0.07884600
vt 0.09615400 0.00000000
vt 0.09615400 0.06410300
vt 0.09807700 0.07692300
vt 0.03589700 0.30769200
vt 0.00000000 0.30769200
vt 0.03589700 0.30576900
vt 0.09615400 0.30576900
vt 0.00000000 0.30576900
vt 0.42051200 0.30769200
vt 0.48044800 0.30769200
vt 0.48044800 0.30576900
vt 0.40384500 0.30576900
vt 0.42051200 0.30576900
vt 0.48044800 0.46153800
vt 0.42051200 0.46153800
vt 0.48237100 0.46153800
vt 0.48044800 0.46346100
vt 0.40384500 0.46346100
vt 0.42051200 0.46346100
vt 0.48237100 0.69230800
vt 0.48044800 0.69230800
vt 0.42051200 0.69230800
vt 0.48044800 0.69038500
vt 0.40384500 0.69038500
vt 0.42051200 0.69038500
vt -0.00000000 0.46153800
vt 0.03589700 0.46153800
vt -0.00000000 0.46346100
vt 0.03589700 0.46346100
vt 0.09615400 0.46346100
vt 0.09615400 0.76923100
vt 0.09807700 0.69230800
f 15/15/15 41/41/41 40/40/40
f 16/16/16 13/13/13 12/12/12
f 73/73/73 17/17/17 16/16/16
f 20/20/20 19/19/19 18/18/18
f 22/22/22 21/21/21 20/20/20
f 40/40/40 10/10/10 15/15/15
f 38/38/38 14/14/14 9/9/9
f 25/25/25 88/88/88 89/89/89
f 39/39/39 1/1/1 10/10/10
f 42/42/42 3/3/3 30/30/30
f 32/32/32 4/4/4 3/3/3
f 33/33/33 5/5/5 4/4/4
f 34/34/34 6/6/6 5/5/5
f 35/35/35 7/7/7 6/6/6
f 36/36/36 8/8/8 7/7/7
f 37/37/37 9/9/9 8/8/8
f 60/60/60 44/44/44 43/43/43
f 40/40/40 24/24/24 25/25/25
f 71/71/71 15/15/15 70/70/70
f 46/46/46 47/47/47 45/45/45
f 48/48/48 98/98/98 47/47/47
f 50/50/50 51/51/51 49/49/49
f 52/52/52 53/53/53 51/51/51
f 10/10/10 70/70/70 15/15/15
f 14/14/14 68/68/68 9/9/9
f 54/54/54 95/95/95 94/94/94
f 1/1/1 69/69/69 10/10/10
f 3/3/3 72/72/72 30/30/30
f 4/4/4 62/62/62 3/3/3
f 5/5/5 63/63/63 4/4/4
f 6/6/6 64/64/64 5/5/5
f 7/7/7 65/65/65 6/6/6
f 8/8/8 66/66/66 7/7/7
f 9/9/9 67/67/67 8/8/8
f 55/55/55 70/70/70 56/56/56
f 73/73/73 19/19/19 76/76/76
f 77/77/77 74/74/74 78/78/78
f 78/78/78 75/75/75 76/76/76
f 80/80/80 11/11/11 29/29/29
f 79/79/79 11/11/11 80/80/80
f 11/11/11 81/81/81 29/29/29
f 79/79/79 2/2/2 11/11/11
f 83/83/83 84/84/84 82/82/82
f 82/82/82 85/85/85 28/28/28
f 87/87/87 89/89/89 88/88/88
f 26/26/26 91/91/91 87/87/87
f 92/92/92 97/97/97 93/93/93
f 93/93/93 96/96/96 57/57/57
f 94/94/94 55/55/55 56/56/56
f 99/99/99 101/101/101 49/49/49
f 101/101/101 100/100/100 103/103/103
f 103/103/103 58/58/58 102/102/102
f 105/105/105 106/106/106 104/104/104
f 59/59/59 107/107/107 105/105/105
f 15/15/15 14/14/14 41/41/41
f 16/16/16 17/17/17 13/13/13
f 73/73/73 75/75/75 17/17/17
f 20/20/20 21/21/21 19/19/19
f 22/22/22 23/23/23 21/21/21
f 40/40/40 39/39/39 10/10/10
f 38/38/38 41/41/41 14/14/14
f 23/23/23 22/22/22 25/25/25
f 25/25/25 24/24/24 88/88/88
f 89/89/89 23/23/23 25/25/25
f 39/39/39 31/31/31 1/1/1
f 42/42/42 32/32/32 3/3/3
f 32/32/32 33/33/33 4/4/4
f 33/33/33 34/34/34 5/5/5
f 34/34/34 35/35/35 6/6/6
f 35/35/35 36/36/36 7/7/7
f 36/36/36 37/37/37 8/8/8
f 37/37/37 38/38/38 9/9/9
f 43/43/43 109/109/109 60/60/60
f 60/60/60 110/110/110 44/44/44
f 40/40/40 41/41/41 24/24/24
f 71/71/71 14/14/14 15/15/15
f 46/46/46 48/48/48 47/47/47
f 48/48/48 99/99/99 98/98/98
f 50/50/50 52/52/52 51/51/51
f 52/52/52 54/54/54 53/53/53
f 10/10/10 69/69/69 70/70/70
f 14/14/14 71/71/71 68/68/68
f 94/94/94 53/53/53 54/54/54
f 95/95/95 92/92/92 94/94/94
f 1/1/1 61/61/61 69/69/69
f 3/3/3 62/62/62 72/72/72
f 4/4/4 63/63/63 62/62/62
f 5/5/5 64/64/64 63/63/63
f 6/6/6 65/65/65 64/64/64
f 7/7/7 66/66/66 65/65/65
f 8/8/8 67/67/67 66/66/66
f 9/9/9 68/68/68 67/67/67
f 55/55/55 71/71/71 70/70/70
f 76/76/76 75/75/75 73/73/73
f 73/73/73 18/18/18 19/19/19
f 77/77/77 27/27/27 74/74/74
f 78/78/78 74/74/74 75/75/75
f 83/83/83 86/86/86 84/84/84
f 82/82/82 84/84/84 85/85/85
f 87/87/87 91/91/91 89/89/89
f 26/26/26 90/90/90 91/91/91
f 92/92/92 95/95/95 97/97/97
f 93/93/93 97/97/97 96/96/96
f 94/94/94 92/92/92 55/55/55
f 49/49/49 98/98/98 99/99/99
f 101/101/101 50/50/50 49/49/49
f 101/101/101 99/99/99 100/100/100
f 103/103/103 100/100/100 58/58/58
f 105/105/105 107/107/107 106/106/106
f 59/59/59 108/108/108 107/107/107

