# https://github.com/mikedh/trimesh
v -2.80700400 -3.02611710 0.00000000
v -2.80700400 -2.42611690 0.00000000
v 1.99299600 -3.62611700 0.00000000
v 1.99299600 -2.42611690 0.00000000
v 1.99299600 -4.22611710 0.00000000
v 1.99299600 -1.82611700 0.00000000
v 1.99299600 -1.22611700 0.00000000
v 1.99299600 -1.22611700 0.00000000
v 1.99299600 -4.82611700 0.00000000
v 1.99299600 -4.82611700 0.00000000
v 0.79299600 -1.22611700 0.00000000
v -1.60700400 -4.82611700 0.00000000
v -0.40700400 -4.82611700 0.00000000
v 0.79299600 -4.82611700 0.00000000
v -2.80700400 -3.62611700 0.00000000
v 1.99299600 -2.42611690 0.20000000
v 1.99299600 -2.42611690 0.20000000
v 1.99299600 -1.82611700 0.20000000
v 1.99299600 -1.82611700 0.20000000
v 0.79299600 -2.42611690 0.20000000
v 1.99299600 -1.22611700 0.20000000
v 1.99299600 -1.22611700 0.20000000
v 1.99299600 -1.22611700 0.20000000
v 0.79299600 -1.22611700 0.20000000
v 0.79299600 -1.22611700 0.20000000
v 0.79299600 -4.82611700 0.20000000
v 0.79299600 -4.82611700 0.20000000
v 0.79299600 -3.62611700 0.20000000
v 1.99299600 -4.82611700 0.20000000
v 1.99299600 -4.82611700 0.20000000
v 1.99299600 -4.82611700 0.20000000
v 1.99299600 -4.22611710 0.20000000
v 1.99299600 -4.22611710 0.20000000
v 1.99299600 -3.62611700 0.20000000
v 1.99299600 -3.62611700 0.20000000
v -1.60700400 -4.82611700 0.20000000
v -1.60700400 -4.82611700 0.20000000
v -1.60700400 -3.62611700 0.20000000
v -0.40700400 -3.62611700 0.20000000
v -0.40700400 -4.82611700 0.20000000
v -0.40700400 -4.82611700 0.20000000
v -2.80700400 -3.62611700 0.20000000
v -2.80700400 -3.62611700 0.20000000
v -2.80700400 -3.02611710 0.20000000
v -2.80700400 -3.02611710 0.20000000
v -1.60700400 -2.42611690 0.20000000
v -2.80700400 -2.42611690 0.20000000
v -2.80700400 -2.42611690 0.20000000
v 1.99299600 -1.25611700 0.00000000
v 1.99299600 -4.79611680 0.00000000
v -2.80353900 3.02400990 0.00000000
v -2.80353900 2.42401000 0.00000000
v 1.99646200 3.62401010 0.00000000
v 1.99646200 2.42401100 0.00000000
v 1.99646100 4.22401000 0.00000000
v 1.99646200 1.82401000 0.00000000
v 1.99646200 1.22401000 0.00000000
v 1.99646200 1.22401000 0.00000000
v 1.99646100 4.82401080 0.00000000
v 1.99646100 4.82401080 0.00000000
v 0.79646200 1.22401000 0.00000000
v -1.60353900 4.82400990 0.00000000
v -0.40353900 4.82400990 0.00000000
v 0.79646100 4.82400990 0.00000000
v -2.80353900 3.62401010 0.00000000
v 1.99646200 2.42401100 0.20000000
v 1.99646200 2.42401100 0.20000000
v 1.99646200 1.82401000 0.20000000
v 1.99646200 1.82401000 0.20000000
v 0.79646200 2.42401100 0.20000000
v 1.99646200 1.22401000 0.20000000
v 1.99646200 1.22401000 0.20000000
v 1.99646200 1.22401000 0.20000000
v 0.79646200 1.22401000 0.20000000
v 0.79646200 1.22401000 0.20000000
v 0.79646100 4.82400990 0.20000000
v 0.79646100 4.82400990 0.20000000
v 0.79646100 3.62401010 0.20000000
v 1.99646100 4.82401080 0.20000000
v 1.99646100 4.82401080 0.20000000
v 1.99646100 4.82401080 0.20000000
v 1.99646100 4.22401000 0.20000000
v 1.99646100 4.22401000 0.20000000
v 1.99646200 3.62401010 0.20000000
v 1.99646200 3.62401010 0.20000000
v -1.60353900 4.82400990 0.20000000
v -1.60353900 4.82400990 0.20000000
v -1.60353900 3.62401010 0.20000000
v -0.40353800 3.62401010 0.20000000
v -0.40353900 4.82400990 0.20000000
v -0.40353900 4.82400990 0.20000000
v -2.80353900 3.62401010 0.20000000
v -2.80353900 3.62401010 0.20000000
v -2.80353900 3.02400990 0.20000000
v -2.80353900 3.02400990 0.20000000
v -1.60353800 2.42401000 0.20000000
v -2.80353900 2.42401000 0.20000000
v -2.80353900 2.42401000 0.20000000
v 1.99646200 1.25401000 0.00000000
v 1.99646100 4.79401110 0.00000000
vn -1.00000000 0.00000000 0.00000000
vn -1.00000000 0.00000000 0.00000000
vn 1.00000000 0.00000000 0.00000000
vn 1.00000000 0.00000000 0.00000000
vn 1.00000000 0.00000000 0.00000000
vn 1.00000000 0.00000000 0.00000000
vn 1.00000000 0.00000000 0.00000000
vn 0.00000000 1.00000000 0.00000000
vn 0.00000000 -1.00000000 0.00000000
vn 1.00000000 0.00000000 0.00000000
vn 0.00000000 1.00000000 0.00000000
vn 0.00000000 -1.00000000 0.00000000
vn 0.00000000 -1.00000000 0.00000000
vn 0.00000000 -1.00000000 0.00000000
vn -1.00000000 0.00000000 0.00000000
vn 1.00000000 0.00000000 0.00000000
vn 0.00000000 0.00000000 1.00000000
vn 0.00000000 0.00000000 1.00000000
vn 1.00000000 0.00000000 0.00000000
vn 0.00000000 0.00000000 1.00000000
vn 0.00000000 0.00000000 1.00000000
vn 1.00000000 0.00000000 0.00000000
vn 0.00000000 1.00000000 0.00000000
vn 0.00000000 1.00000000 0.00000000
vn 0.00000000 0.00000000 1.00000000
vn 0.00000000 -1.00000000 0.00000000
vn 0.00000000 0.00000000 1.00000000
vn 0.00000000 0.00000000 1.00000000
vn 1.00000000 0.00000000 0.00000000
vn 0.00000000 0.00000000 1.00000000
vn 0.00000000 -1.00000000 0.00000000
vn 0.00000000 0.00000000 1.00000000
vn 1.00000000 0.00000000 0.00000000
vn 1.00000000 0.00000000 0.00000000
vn 0.00000000 0.00000000 1.00000000
vn 0.00000000 0.00000000 1.00000000
vn 0.00000000 -1.00000000 0.00000000
vn 0.00000000 0.00000000 1.00000000
vn 0.00000000 0.00000000 1.00000000
vn 0.00000000 0.00000000 1.00000000
vn 0.00000000 -1.00000000 0.00000000
vn 0.00000000 0.00000000 1.00000000
vn -1.00000000 0.00000000 0.00000000
vn -1.00000000 0.00000000 0.00000000
vn 0.00000000 0.00000000 1.00000000
vn 0.00000000 0.00000000 1.00000000
vn 0.00000000 0.00000000 1.00000000
vn -1.00000000 0.00000000 0.00000000
vn 1.00000000 0.00000000 0.00000000
vn 1.00000000 0.00000000 0.00000000
vn -1.00000000 0.00000000 0.00000000
vn -1.00000000 0.00000000 0.00000000
vn 1.00000000 0.00000159 0.00000000
vn 1.00000000 0.00000000 0.00000000
vn 1.00000000 0.00000080 0.00000000
vn 1.00000000 0.00000000 0.00000000
vn 1.00000000 0.00000000 0.00000000
vn 0.00000000 -1.00000000 0.00000000
vn -0.00000076 1.00000000 0.00000000
vn 1.00000000 0.00000000 0.00000000
vn 0.00000000 -1.00000000 0.00000000
vn 0.00000000 1.00000000 0.00000000
vn 0.00000000 1.00000000 0.00000000
vn -0.00000076 1.00000000 0.00000000
vn -1.00000000 0.00000000 0.00000000
vn 1.00000000 0.00000000 0.00000000
vn 0.00000000 0.00000000 1.00000000
vn 0.00000000 0.00000000 1.00000000
vn 1.00000000 0.00000000 0.00000000
vn 0.00000000 0.00000000 1.00000000
vn 0.00000000 0.00000000 1.00000000
vn 1.00000000 0.00000000 0.00000000
vn 0.00000000 -1.00000000 0.00000000
vn 0.00000000 -1.00000000 0.00000000
vn 0.00000000 0.00000000 1.00000000
vn -0.00000076 1.00000000 0.00000000
vn 0.00000000 0.00000000 1.00000000
vn 0.00000000 0.00000000 1.00000000
vn 1.00000000 0.00000000 0.00000000
vn 0.00000000 0.00000000 1.00000000
vn -0.00000076 1.00000000 0.00000000
vn 0.00000000 0.00000000 1.00000000
vn 1.00000000 0.00000080 0.00000000
vn 1.00000000 0.00000159 0.00000000
vn 0.00000000 0.00000000 1.00000000
vn 0.00000000 0.00000000 1.00000000
vn 0.00000000 1.00000000 0.00000000
vn 0.00000000 0.00000000 1.00000000
vn 0.00000000 0.00000000 1.00000000
vn 0.00000000 0.00000000 1.00000000
vn 0.00000000 1.00000000 0.00000000
vn 0.00000000 0.00000000 1.00000000
vn -1.00000000 0.00000000 0.00000000
vn -1.00000000 0.00000000 0.00000000
vn 0.00000000 0.00000000 1.00000000
vn 0.00000000 0.00000000 1.00000000
vn 0.00000000 0.00000000 1.00000000
vn -1.00000000 0.00000000 0.00000000
vn 1.00000000 0.00000000 0.00000000
vn 1.00000000 0.00000000 0.00000000
f 29//29 50//50 5//5
f 18//18 25//25 20//20
f 19//19 49//49 7//7
f 23//23 8//8 11//11
f 16//16 4//4 6//6
f 32//32 28//28 27//27
f 26//26 14//14 9//9
f 33//33 5//5 3//3
f 40//40 39//39 38//38
f 37//37 12//12 13//13
f 38//38 47//47 45//45
f 48//48 2//2 1//1
f 44//44 1//1 15//15
f 50//50 29//29 10//10
f 29//29 5//5 33//33
f 25//25 18//18 21//21
f 18//18 20//20 17//17
f 49//49 19//19 6//6
f 19//19 7//7 22//22
f 23//23 11//11 24//24
f 16//16 6//6 19//19
f 28//28 32//32 35//35
f 32//32 27//27 30//30
f 26//26 9//9 31//31
f 33//33 3//3 34//34
f 40//40 38//38 36//36
f 37//37 13//13 41//41
f 47//47 38//38 46//46
f 38//38 45//45 42//42
f 48//48 1//1 44//44
f 44//44 15//15 43//43
f 79//79 55//55 100//100
f 68//68 70//70 75//75
f 69//69 57//57 99//99
f 73//73 61//61 58//58
f 66//66 56//56 54//54
f 82//82 77//77 78//78
f 76//76 59//59 64//64
f 83//83 53//53 55//55
f 90//90 88//88 89//89
f 87//87 63//63 62//62
f 88//88 95//95 97//97
f 98//98 51//51 52//52
f 94//94 65//65 51//51
f 100//100 60//60 79//79
f 79//79 83//83 55//55
f 75//75 71//71 68//68
f 68//68 67//67 70//70
f 99//99 56//56 69//69
f 69//69 72//72 57//57
f 73//73 74//74 61//61
f 66//66 69//69 56//56
f 78//78 85//85 82//82
f 82//82 80//80 77//77
f 76//76 81//81 59//59
f 83//83 84//84 53//53
f 90//90 86//86 88//88
f 87//87 91//91 63//63
f 97//97 96//96 88//88
f 88//88 92//92 95//95
f 98//98 94//94 51//51
f 94//94 93//93 65//65

